<svg xmlns="http://www.w3.org/2000/svg" style="display:none" aria-hidden="true">
  <symbol id="ph-regular-magnifying-glass" viewBox="0 0 256 256"><path d="M229.66,218.34l-50.07-50.06a88.11,88.11,0,1,0-11.31,11.31l50.06,50.07a8,8,0,0,0,11.32-11.32ZM40,112a72,72,0,1,1,72,72A72.08,72.08,0,0,1,40,112Z"/></symbol>
  <symbol id="ph-regular-bell" viewBox="0 0 256 256"><path d="M221.8,175.94C216.25,166.38,208,139.33,208,104a80,80,0,1,0-160,0c0,35.34-8.26,62.38-13.81,71.94A16,16,0,0,0,48,200H88.81a40,40,0,0,0,78.38,0H208a16,16,0,0,0,13.8-24.06ZM128,216a24,24,0,0,1-22.62-16h45.24A24,24,0,0,1,128,216ZM48,184c7.7-13.24,16-43.92,16-80a64,64,0,1,1,128,0c0,36.05,8.28,66.73,16,80Z"/></symbol>
  <symbol id="ph-regular-bell-slash" viewBox="0 0 256 256"><path d="M73.92,33.62a8,8,0,1,0-11.84,10.76L86.61,71.37A79.56,79.56,0,0,0,48,104c0,35.34-8.26,62.38-13.81,71.94A16,16,0,0,0,48,200H169.13l13,14.38a8,8,0,1,0,11.84-10.76ZM48,184c7.7-13.24,16-43.93,16-80a63.7,63.7,0,0,1,33.54-56.15L154.7,184Zm120.06-8L83.09,82.53q1.19-1.61,2.49-3.16L189.6,193.13A8,8,0,0,0,168.06,176Zm25.75-.06c-.15-.26-.3-.53-.44-.8C188.16,164.71,192,138.24,192,104a64,64,0,0,0-121.55-28l-11.7-12.87A80,80,0,0,1,208,104c0,35.33,8.25,62.36,13.79,71.92a16,16,0,0,1-8.5,23.57ZM167.19,200a40,40,0,0,1-78.38,0Z"/></symbol>
  <symbol id="ph-bold-arrow-left" viewBox="0 0 256 256"><path d="M228,128a12,12,0,0,1-12,12H69l51.52,51.51a12,12,0,0,1-17,17l-72-72a12,12,0,0,1,0-17l72-72a12,12,0,0,1,17,17L69,116H216A12,12,0,0,1,228,128Z"/></symbol>
  <symbol id="ph-bold-caret-left" viewBox="0 0 256 256"><path d="M168.49,199.51a12,12,0,0,1-17,17l-80-80a12,12,0,0,1,0-17l80-80a12,12,0,0,1,17,17L97,128Z"/></symbol>
  <symbol id="ph-bold-caret-right" viewBox="0 0 256 256"><path d="M184.49,136.49l-80,80a12,12,0,0,1-17-17L159,128,87.51,56.49a12,12,0,1,1,17-17l80,80A12,12,0,0,1,184.49,136.49Z"/></symbol>
  <symbol id="ph-bold-chat-circle" viewBox="0 0 256 256"><path d="M128,20A108,108,0,0,0,31.85,177.23L21,209.66A20,20,0,0,0,46.34,235l32.43-10.81A108,108,0,1,0,128,20Zm0,192a84,84,0,0,1-42.06-11.27,12,12,0,0,0-6-1.62,12.1,12.1,0,0,0-3.8.62l-29.79,9.93,9.93-29.79a12,12,0,0,0-1-9.81A84,84,0,1,1,128,212Z"/></symbol>
  <symbol id="ph-bold-flag-checkered" viewBox="0 0 256 256"><path d="M229,45a12,12,0,0,0-12.85,1.84c-24.71,21.41-44.53,13.31-74.82-1.68C113.19,31.27,78.17,13.94,40.14,46.88A12,12,0,0,0,36,56V224a12,12,0,0,0,24,0V181.71c22.84-17.13,42.1-9.11,70.68,5,16.23,8,34.74,17.2,54.8,17.2,14.72,0,30.28-4.94,46.38-18.88A12,12,0,0,0,236,176V56A12,12,0,0,0,229,45ZM185.48,83.91A63,63,0,0,0,212,78.08v32.15c-11,8.26-21.2,10.67-32,9.37V83.66C181.81,83.81,183.64,83.91,185.48,83.91ZM156,78.08v34.09c-4.64-2-9.5-4.4-14.68-7A255.21,255.21,0,0,0,116,93.83V59.75c4.64,2,9.5,4.4,14.68,7A252.91,252.91,0,0,0,156,78.08ZM92,52.32V88.24a63.33,63.33,0,0,0-32,5.61V61.68C71,53.42,81.2,51,92,52.32ZM86.52,148A63,63,0,0,0,60,153.86V121.7c11-8.25,21.2-10.66,32-9.36v35.94C90.19,148.13,88.36,148,86.52,148ZM116,153.86V119.77c4.64,2,9.5,4.4,14.68,7A252.91,252.91,0,0,0,156,138.1v34.09c-4.64-2.05-9.5-4.4-14.68-7A250.66,250.66,0,0,0,116,153.86Zm64,25.76V143.68c1.81.14,3.64.24,5.48.24A62.85,62.85,0,0,0,212,138.07v32.19C201,178.52,190.8,180.92,180,179.62Z"/></symbol>
  <symbol id="ph-bold-flow-arrow" viewBox="0 0 256 256"><path d="M248.49,71.51l-32-32a12,12,0,0,0-17,17L211,68h-3c-52,0-64.8,30.71-75.08,55.38-8.82,21.17-15.45,37.05-42.75,40.09a44,44,0,1,0,.28,24.08c43.34-3.87,55.07-32,64.63-54.93C164.9,109,172,92,208,92h3l-11.52,11.51a12,12,0,0,0,17,17l32-32A12,12,0,0,0,248.49,71.51ZM48,196a20,20,0,1,1,20-20A20,20,0,0,1,48,196Z"/></symbol>
  <symbol id="ph-bold-handshake" viewBox="0 0 256 256"><path d="M253.88,108.11l-25.53-51a20,20,0,0,0-26.83-9L178.34,59.7,131.7,44.58a12.14,12.14,0,0,0-7.4,0L77.66,59.7,54.48,48.11a20,20,0,0,0-26.83,9L2.12,108.11a20,20,0,0,0,9,26.83l26.67,13.34,51.18,37.41A12.15,12.15,0,0,0,93,187.62l62,16a12.27,12.27,0,0,0,3,.38,12,12,0,0,0,8.48-3.52l52.62-52.62,25.83-12.92a20,20,0,0,0,8.95-26.83Zm-58.12,29.15-27.52-26a12,12,0,0,0-16.76.26c-9.66,9.74-25.06,16.81-40.81,9.55l38.19-37h22.72l25.81,51.63ZM47.32,71.37,60.59,78l-22,43.9-13.27-6.63Zm107,107.3L101.23,165l-42-30.66L85.17,82.5,128,68.61l1.69.55L90,107.68l-.13.12a20,20,0,0,0,3.4,31c20.95,13.39,46,12.07,66.33-2.73l19.2,18.15Zm63-56.77-22-43.9,13.27-6.63,21.95,43.9ZM118.55,219a12,12,0,0,1-14.62,8.62l-26.6-6.87a12,12,0,0,1-4.08-1.93L48.92,201a12,12,0,0,1,14.16-19.37l22.47,16.42,24.38,6.29A12,12,0,0,1,118.55,219Z"/></symbol>
  <symbol id="ph-bold-hourglass-medium" viewBox="0 0 256 256"><path d="M204,75.64V40a20,20,0,0,0-20-20H72A20,20,0,0,0,52,40V76a20.1,20.1,0,0,0,8,16l48,36L60,164a20.1,20.1,0,0,0-8,16v36a20,20,0,0,0,20,20H184a20,20,0,0,0,20-20V180.36a20.13,20.13,0,0,0-7.94-16L147.9,128l48.16-36.4A20.13,20.13,0,0,0,204,75.64ZM180,44V72H76V44Zm-52,69L105.33,96h45.1Zm52,99H76V182l40-30v16a12,12,0,0,0,24,0V152.11l40,30.24Z"/></symbol>
  <symbol id="ph-bold-house" viewBox="0 0 256 256"><path d="M222.14,105.85l-80-80a20,20,0,0,0-28.28,0l-80,80A19.86,19.86,0,0,0,28,120v96a12,12,0,0,0,12,12h64a12,12,0,0,0,12-12V164h24v52a12,12,0,0,0,12,12h64a12,12,0,0,0,12-12V120A19.86,19.86,0,0,0,222.14,105.85ZM204,204H164V152a12,12,0,0,0-12-12H104a12,12,0,0,0-12,12v52H52V121.65l76-76,76,76Z"/></symbol>
  <symbol id="ph-bold-paper-plane-tilt" viewBox="0 0 256 256"><path d="M230.14,25.86a20,20,0,0,0-19.57-5.11l-.22.07L18.44,79a20,20,0,0,0-3.06,37.25L99,157l40.71,83.65a19.81,19.81,0,0,0,18,11.38c.57,0,1.15,0,1.73-.07A19.82,19.82,0,0,0,177,237.56L235.18,45.65a1.42,1.42,0,0,0,.07-.22A20,20,0,0,0,230.14,25.86ZM156.91,221.07l-34.37-70.64,46-45.95a12,12,0,0,0-17-17l-46,46L34.93,99.09,210,46Z"/></symbol>
  <symbol id="ph-bold-pause" viewBox="0 0 256 256"><path d="M200,28H160a20,20,0,0,0-20,20V208a20,20,0,0,0,20,20h40a20,20,0,0,0,20-20V48A20,20,0,0,0,200,28Zm-4,176H164V52h32ZM96,28H56A20,20,0,0,0,36,48V208a20,20,0,0,0,20,20H96a20,20,0,0,0,20-20V48A20,20,0,0,0,96,28ZM92,204H60V52H92Z"/></symbol>
  <symbol id="ph-bold-play" viewBox="0 0 256 256"><path d="M234.49,111.07,90.41,22.94A20,20,0,0,0,60,39.87V216.13a20,20,0,0,0,30.41,16.93l144.08-88.13a19.82,19.82,0,0,0,0-33.86ZM84,208.85V47.15L216.16,128Z"/></symbol>
  <symbol id="ph-bold-play-circle" viewBox="0 0 256 256"><path d="M176,128a12,12,0,0,1-5.17,9.87l-52,36A12,12,0,0,1,100,164V92a12,12,0,0,1,18.83-9.87l52,36A12,12,0,0,1,176,128Zm60,0A108,108,0,1,1,128,20,108.12,108.12,0,0,1,236,128Zm-24,0a84,84,0,1,0-84,84A84.09,84.09,0,0,0,212,128Z"/></symbol>
  <symbol id="ph-bold-sign-out" viewBox="0 0 256 256"><path d="M124,216a12,12,0,0,1-12,12H48a12,12,0,0,1-12-12V40A12,12,0,0,1,48,28h64a12,12,0,0,1,0,24H60V204h52A12,12,0,0,1,124,216Zm108.49-96.49-40-40a12,12,0,0,0-17,17L195,116H112a12,12,0,0,0,0,24h83l-19.52,19.51a12,12,0,0,0,17,17l40-40A12,12,0,0,0,232.49,119.51Z"/></symbol>
  <symbol id="ph-bold-skip-back" viewBox="0 0 256 256"><path d="M201.75,30.52a20,20,0,0,0-20.3.53L68,102V40a12,12,0,0,0-24,0V216a12,12,0,0,0,24,0V154l113.45,71A20,20,0,0,0,212,208.12V47.88A19.86,19.86,0,0,0,201.75,30.52ZM188,200.73,71.7,128,188,55.27Z"/></symbol>
  <symbol id="ph-bold-skip-forward" viewBox="0 0 256 256"><path d="M200,28a12,12,0,0,0-12,12v62l-113.45-71A20,20,0,0,0,44,47.88V208.12A20,20,0,0,0,74.55,225L188,154v62a12,12,0,0,0,24,0V40A12,12,0,0,0,200,28ZM68,200.73V55.27L184.3,128Z"/></symbol>
  <symbol id="ph-bold-smiley-sad" viewBox="0 0 256 256"><path d="M128,20A108,108,0,1,0,236,128,108.12,108.12,0,0,0,128,20Zm0,192a84,84,0,1,1,84-84A84.09,84.09,0,0,1,128,212ZM76,108a16,16,0,1,1,16,16A16,16,0,0,1,76,108Zm104,0a16,16,0,1,1-16-16A16,16,0,0,1,180,108Zm-3.26,57a12,12,0,0,1-19.48,14,36,36,0,0,0-58.52,0,12,12,0,0,1-19.48-14,60,60,0,0,1,97.48,0Z"/></symbol>
  <symbol id="ph-bold-trash" viewBox="0 0 256 256"><path d="M216,48H180V36A28,28,0,0,0,152,8H104A28,28,0,0,0,76,36V48H40a12,12,0,0,0,0,24h4V208a20,20,0,0,0,20,20H192a20,20,0,0,0,20-20V72h4a12,12,0,0,0,0-24ZM100,36a4,4,0,0,1,4-4h48a4,4,0,0,1,4,4V48H100Zm88,168H68V72H188ZM116,104v64a12,12,0,0,1-24,0V104a12,12,0,0,1,24,0Zm48,0v64a12,12,0,0,1-24,0V104a12,12,0,0,1,24,0Z"/></symbol>
  <symbol id="ph-bold-trophy" viewBox="0 0 256 256"><path d="M232,60H212V48a12,12,0,0,0-12-12H56A12,12,0,0,0,44,48V60H24A20,20,0,0,0,4,80V96a44.05,44.05,0,0,0,44,44h.77A84.18,84.18,0,0,0,116,195.15V212H96a12,12,0,0,0,0,24h64a12,12,0,0,0,0-24H140V195.11c30.94-4.51,56.53-26.2,67-55.11h1a44.05,44.05,0,0,0,44-44V80A20,20,0,0,0,232,60ZM28,96V84H44v28c0,1.21,0,2.41.09,3.61A20,20,0,0,1,28,96Zm160,15.1c0,33.33-26.71,60.65-59.54,60.9A60,60,0,0,1,68,112V60H188ZM228,96a20,20,0,0,1-16.12,19.62c.08-1.5.12-3,.12-4.52V84h16Z"/></symbol>
  <symbol id="ph-regular-arrow-left" viewBox="0 0 256 256"><path d="M224,128a8,8,0,0,1-8,8H59.31l58.35,58.34a8,8,0,0,1-11.32,11.32l-72-72a8,8,0,0,1,0-11.32l72-72a8,8,0,0,1,11.32,11.32L59.31,120H216A8,8,0,0,1,224,128Z"/></symbol>
  <symbol id="ph-regular-arrows-clockwise" viewBox="0 0 256 256"><path d="M224,48V96a8,8,0,0,1-8,8H168a8,8,0,0,1,0-16h28.69L182.06,73.37a79.56,79.56,0,0,0-56.13-23.43h-.45A79.52,79.52,0,0,0,69.59,72.71,8,8,0,0,1,58.41,61.27a96,96,0,0,1,135,.79L208,76.69V48a8,8,0,0,1,16,0ZM186.41,183.29a80,80,0,0,1-112.47-.66L59.31,168H88a8,8,0,0,0,0-16H40a8,8,0,0,0-8,8v48a8,8,0,0,0,16,0V179.31l14.63,14.63A95.43,95.43,0,0,0,130,222.06h.53a95.36,95.36,0,0,0,67.07-27.33,8,8,0,0,0-11.18-11.44Z"/></symbol>
  <symbol id="ph-regular-broadcast" viewBox="0 0 256 256"><path d="M128,88a40,40,0,1,0,40,40A40,40,0,0,0,128,88Zm0,64a24,24,0,1,1,24-24A24,24,0,0,1,128,152Zm73.71,7.14a80,80,0,0,1-14.08,22.2,8,8,0,0,1-11.92-10.67,63.95,63.95,0,0,0,0-85.33,8,8,0,1,1,11.92-10.67,80.08,80.08,0,0,1,14.08,84.47ZM69,103.09a64,64,0,0,0,11.26,67.58,8,8,0,0,1-11.92,10.67,79.93,79.93,0,0,1,0-106.67A8,8,0,1,1,80.29,85.34,63.77,63.77,0,0,0,69,103.09ZM248,128a119.58,119.58,0,0,1-34.29,84,8,8,0,1,1-11.42-11.2,103.9,103.9,0,0,0,0-145.56A8,8,0,1,1,213.71,44,119.58,119.58,0,0,1,248,128ZM53.71,200.78A8,8,0,1,1,42.29,212a119.87,119.87,0,0,1,0-168,8,8,0,1,1,11.42,11.2,103.9,103.9,0,0,0,0,145.56Z"/></symbol>
  <symbol id="ph-regular-calendar" viewBox="0 0 256 256"><path d="M208,32H184V24a8,8,0,0,0-16,0v8H88V24a8,8,0,0,0-16,0v8H48A16,16,0,0,0,32,48V208a16,16,0,0,0,16,16H208a16,16,0,0,0,16-16V48A16,16,0,0,0,208,32ZM72,48v8a8,8,0,0,0,16,0V48h80v8a8,8,0,0,0,16,0V48h24V80H48V48ZM208,208H48V96H208V208Zm-96-88v64a8,8,0,0,1-16,0V132.94l-4.42,2.22a8,8,0,0,1-7.16-14.32l16-8A8,8,0,0,1,112,120Zm59.16,30.45L152,176h16a8,8,0,0,1,0,16H136a8,8,0,0,1-6.4-12.8l28.78-38.37A8,8,0,1,0,145.07,132a8,8,0,1,1-13.85-8A24,24,0,0,1,176,136,23.76,23.76,0,0,1,171.16,150.45Z"/></symbol>
  <symbol id="ph-regular-check-circle" viewBox="0 0 256 256"><path d="M173.66,98.34a8,8,0,0,1,0,11.32l-56,56a8,8,0,0,1-11.32,0l-24-24a8,8,0,0,1,11.32-11.32L112,148.69l50.34-50.35A8,8,0,0,1,173.66,98.34ZM232,128A104,104,0,1,1,128,24,104.11,104.11,0,0,1,232,128Zm-16,0a88,88,0,1,0-88,88A88.1,88.1,0,0,0,216,128Z"/></symbol>
  <symbol id="ph-regular-checkerboard" viewBox="0 0 256 256"><path d="M208,32H48A16,16,0,0,0,32,48V208a16,16,0,0,0,16,16H208a16,16,0,0,0,16-16V48A16,16,0,0,0,208,32Zm-12.69,88L136,60.69V48h12.69L208,107.32V120ZM136,83.31,172.69,120H136Zm72,1.38L171.31,48H208ZM120,48v72H48V48ZM107.31,208,48,148.69V136H60.69L120,195.31V208ZM120,172.69,83.31,136H120Zm-72-1.38L84.69,208H48ZM208,208H136V136h72v72Z"/></symbol>
  <symbol id="ph-regular-clock-counter-clockwise" viewBox="0 0 256 256"><path d="M136,80v43.47l36.12,21.67a8,8,0,0,1-8.24,13.72l-40-24A8,8,0,0,1,120,128V80a8,8,0,0,1,16,0Zm-8-48A95.44,95.44,0,0,0,60.08,60.15C52.81,67.51,46.35,74.59,40,82V64a8,8,0,0,0-16,0v40a8,8,0,0,0,8,8H72a8,8,0,0,0,0-16H49c7.15-8.42,14.27-16.35,22.39-24.57a80,80,0,1,1,1.66,114.75,8,8,0,1,0-11,11.64A96,96,0,1,0,128,32Z"/></symbol>
  <symbol id="ph-regular-crown-simple" viewBox="0 0 256 256"><path d="M230.9,73.6A15.85,15.85,0,0,0,212,77.39l-33.67,36.29-35.8-80.29a1,1,0,0,1,0-.1,16,16,0,0,0-29.06,0,1,1,0,0,1,0,.1l-35.8,80.29L44,77.39A16,16,0,0,0,16.25,90.81c0,.11,0,.21.07.32L39,195a16,16,0,0,0,15.72,13H201.29A16,16,0,0,0,217,195L239.68,91.13c0-.11,0-.21.07-.32A15.85,15.85,0,0,0,230.9,73.6ZM201.35,191.68l-.06.32H54.71l-.06-.32L32,88l.14.16,42,45.24a8,8,0,0,0,13.18-2.18L128,40l40.69,91.25a8,8,0,0,0,13.18,2.18l42-45.24L224,88Z"/></symbol>
  <symbol id="ph-regular-eye" viewBox="0 0 256 256"><path d="M247.31,124.76c-.35-.79-8.82-19.58-27.65-38.41C194.57,61.26,162.88,48,128,48S61.43,61.26,36.34,86.35C17.51,105.18,9,124,8.69,124.76a8,8,0,0,0,0,6.5c.35.79,8.82,19.57,27.65,38.4C61.43,194.74,93.12,208,128,208s66.57-13.26,91.66-38.34c18.83-18.83,27.3-37.61,27.65-38.4A8,8,0,0,0,247.31,124.76ZM128,192c-30.78,0-57.67-11.19-79.93-33.25A133.47,133.47,0,0,1,25,128,133.33,133.33,0,0,1,48.07,97.25C70.33,75.19,97.22,64,128,64s57.67,11.19,79.93,33.25A133.46,133.46,0,0,1,231.05,128C223.84,141.46,192.43,192,128,192Zm0-112a48,48,0,1,0,48,48A48.05,48.05,0,0,0,128,80Zm0,80a32,32,0,1,1,32-32A32,32,0,0,1,128,160Z"/></symbol>
  <symbol id="ph-regular-flag-checkered" viewBox="0 0 256 256"><path d="M227.32,48.75A8,8,0,0,0,218.76,50c-28,24.22-51.72,12.48-79.21-1.13C111.07,34.76,78.78,18.79,42.76,50A8,8,0,0,0,40,56V224a8,8,0,0,0,16,0V179.77c26.79-21.16,49.87-9.75,76.45,3.41,28.49,14.09,60.77,30.06,96.79-1.13a8,8,0,0,0,2.76-6V56A8,8,0,0,0,227.32,48.75ZM216,71.6v40.65c-14,11.06-27,13.22-40,10.88V79.34A60.05,60.05,0,0,0,216,71.6Zm-56,3.76v43c-6.66-2.67-13.43-6-20.45-9.48-8.82-4.37-18-8.91-27.55-12.18v-43c6.66,2.66,13.43,6,20.45,9.48C141.27,67.55,150.46,72.09,160,75.36ZM96,48.91V92.69a60.06,60.06,0,0,0-40,7.75V59.78C70,48.72,83,46.57,96,48.91ZM86.58,152A60.06,60.06,0,0,0,56,160.43V119.78c14-11.06,27-13.22,40-10.88v43.8A65.61,65.61,0,0,0,86.58,152ZM112,156.67v-43c6.66,2.66,13.43,6,20.45,9.48,8.82,4.37,18,8.9,27.55,12.17v43c-6.66-2.67-13.43-6-20.45-9.48C130.73,164.47,121.54,159.94,112,156.67Zm64,26.45v-43.8a65.61,65.61,0,0,0,9.42.72A60.11,60.11,0,0,0,216,131.57v40.68C202,183.31,189,185.46,176,183.12Z"/></symbol>
  <symbol id="ph-regular-gear-six" viewBox="0 0 256 256"><path d="M128,80a48,48,0,1,0,48,48A48.05,48.05,0,0,0,128,80Zm0,80a32,32,0,1,1,32-32A32,32,0,0,1,128,160Zm109.94-52.79a8,8,0,0,0-3.89-5.4l-29.83-17-.12-33.62a8,8,0,0,0-2.83-6.08,111.91,111.91,0,0,0-36.72-20.67,8,8,0,0,0-6.46.59L128,41.85,97.88,25a8,8,0,0,0-6.47-.6A112.1,112.1,0,0,0,54.73,45.15a8,8,0,0,0-2.83,6.07l-.15,33.65-29.83,17a8,8,0,0,0-3.89,5.4,106.47,106.47,0,0,0,0,41.56,8,8,0,0,0,3.89,5.4l29.83,17,.12,33.62a8,8,0,0,0,2.83,6.08,111.91,111.91,0,0,0,36.72,20.67,8,8,0,0,0,6.46-.59L128,214.15,158.12,231a7.91,7.91,0,0,0,3.9,1,8.09,8.09,0,0,0,2.57-.42,112.1,112.1,0,0,0,36.68-20.73,8,8,0,0,0,2.83-6.07l.15-33.65,29.83-17a8,8,0,0,0,3.89-5.4A106.47,106.47,0,0,0,237.94,107.21Zm-15,34.91-28.57,16.25a8,8,0,0,0-3,3c-.58,1-1.19,2.06-1.81,3.06a7.94,7.94,0,0,0-1.22,4.21l-.15,32.25a95.89,95.89,0,0,1-25.37,14.3L134,199.13a8,8,0,0,0-3.91-1h-.19c-1.21,0-2.43,0-3.64,0a8.08,8.08,0,0,0-4.1,1l-28.84,16.1A96,96,0,0,1,67.88,201l-.11-32.2a8,8,0,0,0-1.22-4.22c-.62-1-1.23-2-1.8-3.06a8.09,8.09,0,0,0-3-3.06l-28.6-16.29a90.49,90.49,0,0,1,0-28.26L61.67,97.63a8,8,0,0,0,3-3c.58-1,1.19-2.06,1.81-3.06a7.94,7.94,0,0,0,1.22-4.21l.15-32.25a95.89,95.89,0,0,1,25.37-14.3L122,56.87a8,8,0,0,0,4.1,1c1.21,0,2.43,0,3.64,0a8.08,8.08,0,0,0,4.1-1l28.84-16.1A96,96,0,0,1,188.12,55l.11,32.2a8,8,0,0,0,1.22,4.22c.62,1,1.23,2,1.8,3.06a8.09,8.09,0,0,0,3,3.06l28.6,16.29A90.49,90.49,0,0,1,222.9,142.12Z"/></symbol>
  <symbol id="ph-regular-grid-four" viewBox="0 0 256 256"><path d="M200,40H56A16,16,0,0,0,40,56V200a16,16,0,0,0,16,16H200a16,16,0,0,0,16-16V56A16,16,0,0,0,200,40Zm0,80H136V56h64ZM120,56v64H56V56ZM56,136h64v64H56Zm144,64H136V136h64v64Z"/></symbol>
  <symbol id="ph-regular-hourglass" viewBox="0 0 256 256"><path d="M200,75.64V40a16,16,0,0,0-16-16H72A16,16,0,0,0,56,40V76a16.07,16.07,0,0,0,6.4,12.8L114.67,128,62.4,167.2A16.07,16.07,0,0,0,56,180v36a16,16,0,0,0,16,16H184a16,16,0,0,0,16-16V180.36a16.09,16.09,0,0,0-6.35-12.77L141.27,128l52.38-39.6A16.05,16.05,0,0,0,200,75.64ZM184,216H72V180l56-42,56,42.35Zm0-140.36L128,118,72,76V40H184Z"/></symbol>
  <symbol id="ph-regular-medal" viewBox="0 0 256 256"><path d="M216,96A88,88,0,1,0,72,163.83V240a8,8,0,0,0,11.58,7.16L128,225l44.43,22.21A8.07,8.07,0,0,0,176,248a8,8,0,0,0,8-8V163.83A87.85,87.85,0,0,0,216,96ZM56,96a72,72,0,1,1,72,72A72.08,72.08,0,0,1,56,96ZM168,227.06l-36.43-18.21a8,8,0,0,0-7.16,0L88,227.06V174.37a87.89,87.89,0,0,0,80,0ZM128,152A56,56,0,1,0,72,96,56.06,56.06,0,0,0,128,152Zm0-96A40,40,0,1,1,88,96,40,40,0,0,1,128,56Z"/></symbol>
  <symbol id="ph-regular-plus-circle" viewBox="0 0 256 256"><path d="M128,24A104,104,0,1,0,232,128,104.11,104.11,0,0,0,128,24Zm0,192a88,88,0,1,1,88-88A88.1,88.1,0,0,1,128,216Zm48-88a8,8,0,0,1-8,8H136v32a8,8,0,0,1-16,0V136H88a8,8,0,0,1,0-16h32V88a8,8,0,0,1,16,0v32h32A8,8,0,0,1,176,128Z"/></symbol>
  <symbol id="ph-regular-ranking" viewBox="0 0 256 256"><path d="M112.41,102.53a8,8,0,0,1,5.06-10.12l12-4A8,8,0,0,1,140,96v40a8,8,0,0,1-16,0V107.1l-1.47.49A8,8,0,0,1,112.41,102.53ZM248,208a8,8,0,0,1-8,8H16a8,8,0,0,1,0-16h8V104A16,16,0,0,1,40,88H80V56A16,16,0,0,1,96,40h64a16,16,0,0,1,16,16v72h40a16,16,0,0,1,16,16v56h8A8,8,0,0,1,248,208Zm-72-64v56h40V144ZM96,200h64V56H96Zm-56,0H80V104H40Z"/></symbol>
  <symbol id="ph-regular-repeat" viewBox="0 0 256 256"><path d="M24,128A72.08,72.08,0,0,1,96,56H204.69L194.34,45.66a8,8,0,0,1,11.32-11.32l24,24a8,8,0,0,1,0,11.32l-24,24a8,8,0,0,1-11.32-11.32L204.69,72H96a56.06,56.06,0,0,0-56,56,8,8,0,0,1-16,0Zm200-8a8,8,0,0,0-8,8,56.06,56.06,0,0,1-56,56H51.31l10.35-10.34a8,8,0,0,0-11.32-11.32l-24,24a8,8,0,0,0,0,11.32l24,24a8,8,0,0,0,11.32-11.32L51.31,200H160a72.08,72.08,0,0,0,72-72A8,8,0,0,0,224,120Z"/></symbol>
  <symbol id="ph-regular-shuffle" viewBox="0 0 256 256"><path d="M237.66,178.34a8,8,0,0,1,0,11.32l-24,24a8,8,0,0,1-11.32-11.32L212.69,192H200.94a72.12,72.12,0,0,1-58.59-30.15l-41.72-58.4A56.1,56.1,0,0,0,55.06,80H32a8,8,0,0,1,0-16H55.06a72.12,72.12,0,0,1,58.59,30.15l41.72,58.4A56.1,56.1,0,0,0,200.94,176h11.75l-10.35-10.34a8,8,0,0,1,11.32-11.32ZM143,107a8,8,0,0,0,11.16-1.86l1.2-1.67A56.1,56.1,0,0,1,200.94,80h11.75L202.34,90.34a8,8,0,0,0,11.32,11.32l24-24a8,8,0,0,0,0-11.32l-24-24a8,8,0,0,0-11.32,11.32L212.69,64H200.94a72.12,72.12,0,0,0-58.59,30.15l-1.2,1.67A8,8,0,0,0,143,107Zm-30,42a8,8,0,0,0-11.16,1.86l-1.2,1.67A56.1,56.1,0,0,1,55.06,176H32a8,8,0,0,0,0,16H55.06a72.12,72.12,0,0,0,58.59-30.15l1.2-1.67A8,8,0,0,0,113,149Z"/></symbol>
  <symbol id="ph-regular-sword" viewBox="0 0 256 256"><path d="M216,32H152a8,8,0,0,0-6.34,3.12l-64,83.21L72,108.69a16,16,0,0,0-22.64,0l-12.69,12.7a16,16,0,0,0,0,22.63l20,20-28,28a16,16,0,0,0,0,22.63l12.69,12.68a16,16,0,0,0,22.62,0l28-28,20,20a16,16,0,0,0,22.64,0l12.69-12.7a16,16,0,0,0,0-22.63l-9.64-9.64,83.21-64A8,8,0,0,0,224,104V40A8,8,0,0,0,216,32ZM52.69,216,40,203.32l28-28L80.68,188Zm70.61-8L48,132.71,60.7,120,136,195.31ZM208,100.06l-81.74,62.88L115.32,152l50.34-50.34a8,8,0,0,0-11.32-11.31L104,140.68,93.07,129.74,155.94,48H208Z"/></symbol>
  <symbol id="ph-regular-trophy" viewBox="0 0 256 256"><path d="M232,64H208V48a8,8,0,0,0-8-8H56a8,8,0,0,0-8,8V64H24A16,16,0,0,0,8,80V96a40,40,0,0,0,40,40h3.65A80.13,80.13,0,0,0,120,191.61V216H96a8,8,0,0,0,0,16h64a8,8,0,0,0,0-16H136V191.58c31.94-3.23,58.44-25.64,68.08-55.58H208a40,40,0,0,0,40-40V80A16,16,0,0,0,232,64ZM48,120A24,24,0,0,1,24,96V80H48v32q0,4,.39,8Zm144-8.9c0,35.52-29,64.64-64,64.9a64,64,0,0,1-64-64V56H192ZM232,96a24,24,0,0,1-24,24h-.5a81.81,81.81,0,0,0,.5-8.9V80h24Z"/></symbol>
  <symbol id="ph-regular-user-circle" viewBox="0 0 256 256"><path d="M128,24A104,104,0,1,0,232,128,104.11,104.11,0,0,0,128,24ZM74.08,197.5a64,64,0,0,1,107.84,0,87.83,87.83,0,0,1-107.84,0ZM96,120a32,32,0,1,1,32,32A32,32,0,0,1,96,120Zm97.76,66.41a79.66,79.66,0,0,0-36.06-28.75,48,48,0,1,0-59.4,0,79.66,79.66,0,0,0-36.06,28.75,88,88,0,1,1,131.52,0Z"/></symbol>
  <symbol id="ph-regular-user-plus" viewBox="0 0 256 256"><path d="M256,136a8,8,0,0,1-8,8H232v16a8,8,0,0,1-16,0V144H200a8,8,0,0,1,0-16h16V112a8,8,0,0,1,16,0v16h16A8,8,0,0,1,256,136Zm-57.87,58.85a8,8,0,0,1-12.26,10.3C165.75,181.19,138.09,168,108,168s-57.75,13.19-77.87,37.15a8,8,0,0,1-12.25-10.3c14.94-17.78,33.52-30.41,54.17-37.17a68,68,0,1,1,71.9,0C164.6,164.44,183.18,177.07,198.13,194.85ZM108,152a52,52,0,1,0-52-52A52.06,52.06,0,0,0,108,152Z"/></symbol>
  <symbol id="ph-regular-users-three" viewBox="0 0 256 256"><path d="M244.8,150.4a8,8,0,0,1-11.2-1.6A51.6,51.6,0,0,0,192,128a8,8,0,0,1-7.37-4.89,8,8,0,0,1,0-6.22A8,8,0,0,1,192,112a24,24,0,1,0-23.24-30,8,8,0,1,1-15.5-4A40,40,0,1,1,219,117.51a67.94,67.94,0,0,1,27.43,21.68A8,8,0,0,1,244.8,150.4ZM190.92,212a8,8,0,1,1-13.84,8,57,57,0,0,0-98.16,0,8,8,0,1,1-13.84-8,72.06,72.06,0,0,1,33.74-29.92,48,48,0,1,1,58.36,0A72.06,72.06,0,0,1,190.92,212ZM128,176a32,32,0,1,0-32-32A32,32,0,0,0,128,176ZM72,120a8,8,0,0,0-8-8A24,24,0,1,1,87.24,82a8,8,0,1,0,15.5-4A40,40,0,1,0,37,117.51,67.94,67.94,0,0,0,9.6,139.19a8,8,0,1,0,12.8,9.61A51.6,51.6,0,0,1,64,128,8,8,0,0,0,72,120Z"/></symbol>
  <symbol id="ph-regular-warning" viewBox="0 0 256 256"><path d="M236.8,188.09,149.35,36.22h0a24.76,24.76,0,0,0-42.7,0L19.2,188.09a23.51,23.51,0,0,0,0,23.72A24.35,24.35,0,0,0,40.55,224h174.9a24.35,24.35,0,0,0,21.33-12.19A23.51,23.51,0,0,0,236.8,188.09ZM222.93,203.8a8.5,8.5,0,0,1-7.48,4.2H40.55a8.5,8.5,0,0,1-7.48-4.2,7.59,7.59,0,0,1,0-7.72L120.52,44.21a8.75,8.75,0,0,1,15,0l87.45,151.87A7.59,7.59,0,0,1,222.93,203.8ZM120,144V104a8,8,0,0,1,16,0v40a8,8,0,0,1-16,0Zm20,36a12,12,0,1,1-12-12A12,12,0,0,1,140,180Z"/></symbol>
  <symbol id="ph-regular-sun" viewBox="0 0 256 256"><path d="M120,40V16a8,8,0,0,1,16,0V40a8,8,0,0,1-16,0Zm72,88a64,64,0,1,1-64-64A64.07,64.07,0,0,1,192,128Zm-16,0a48,48,0,1,0-48,48A48.05,48.05,0,0,0,176,128ZM58.34,69.66A8,8,0,0,0,69.66,58.34l-16-16A8,8,0,0,0,42.34,53.66Zm0,116.68-16,16a8,8,0,0,0,11.32,11.32l16-16a8,8,0,0,0-11.32-11.32ZM192,72a8,8,0,0,0,5.66-2.34l16-16a8,8,0,0,0-11.32-11.32l-16,16A8,8,0,0,0,192,72Zm5.66,114.34a8,8,0,0,0-11.32,11.32l16,16a8,8,0,0,0,11.32-11.32ZM48,128a8,8,0,0,0-8-8H16a8,8,0,0,0,0,16H40A8,8,0,0,0,48,128Zm80,80a8,8,0,0,0-8,8v24a8,8,0,0,0,16,0V216A8,8,0,0,0,128,208Zm112-88H216a8,8,0,0,0,0,16h24a8,8,0,0,0,0-16Z"/></symbol>
  <symbol id="ph-regular-moon" viewBox="0 0 256 256"><path d="M233.54,142.23a8,8,0,0,0-8-2,88.08,88.08,0,0,1-109.8-109.8,8,8,0,0,0-10-10,104.84,104.84,0,0,0-52.91,37A104,104,0,0,0,136,224a103.09,103.09,0,0,0,62.52-20.88,104.84,104.84,0,0,0,37-52.91A8,8,0,0,0,233.54,142.23ZM188.9,190.34A88,88,0,0,1,65.66,67.11a89,89,0,0,1,31.4-26A106,106,0,0,0,96,56,104.11,104.11,0,0,0,200,160a106,106,0,0,0,14.92-1.06A89,89,0,0,1,188.9,190.34Z"/></symbol>
  <symbol id="ph-regular-palette" viewBox="0 0 256 256"><path d="M200.77,53.89A103.27,103.27,0,0,0,128,24h-1.07A104,104,0,0,0,24,128c0,43,26.58,79.06,69.36,94.17A32,32,0,0,0,136,192a16,16,0,0,1,16-16h46.21a31.81,31.81,0,0,0,31.2-24.88,104.43,104.43,0,0,0,2.59-24A103.28,103.28,0,0,0,200.77,53.89Zm13,93.71A15.89,15.89,0,0,1,198.21,160H152a32,32,0,0,0-32,32,16,16,0,0,1-21.31,15.07C62.49,194.3,40,164,40,128a88,88,0,0,1,87.09-88h.9a88.35,88.35,0,0,1,88,87.25A88.86,88.86,0,0,1,213.81,147.6ZM140,76a12,12,0,1,1-12-12A12,12,0,0,1,140,76ZM96,100A12,12,0,1,1,84,88,12,12,0,0,1,96,100Zm0,56a12,12,0,1,1-12-12A12,12,0,0,1,96,156Zm88-56a12,12,0,1,1-12-12A12,12,0,0,1,184,100Z"/></symbol>
  <symbol id="ph-regular-game-controller" viewBox="0 0 256 256"><path d="M176,112H152a8,8,0,0,1,0-16h24a8,8,0,0,1,0,16ZM104,96H96V88a8,8,0,0,0-16,0v8H72a8,8,0,0,0,0,16h8v8a8,8,0,0,0,16,0v-8h8a8,8,0,0,0,0-16ZM241.48,200.65a36,36,0,0,1-54.94,4.81c-.12-.12-.24-.24-.35-.37L146.48,160h-37L69.81,205.09l-.35.37A36.08,36.08,0,0,1,44,216,36,36,0,0,1,8.56,173.75a.68.68,0,0,1,0-.14L24.93,89.52A59.88,59.88,0,0,1,83.89,40H172a60.08,60.08,0,0,1,59,49.25c0,.06,0,.12,0,.18l16.37,84.17a.68.68,0,0,1,0,.14A35.74,35.74,0,0,1,241.48,200.65ZM172,144a44,44,0,0,0,0-88H83.89A43.9,43.9,0,0,0,40.68,92.37l0,.13L24.3,176.59A20,20,0,0,0,58,194.3l41.92-47.59a8,8,0,0,1,6-2.71Zm59.7,32.59-8.74-45A60,60,0,0,1,172,160h-4.2L198,194.31a20.09,20.09,0,0,0,17.46,5.39,20,20,0,0,0,16.23-23.11Z"/></symbol>
  <symbol id="ph-regular-shield-check" viewBox="0 0 256 256"><path d="M208,40H48A16,16,0,0,0,32,56v56c0,52.72,25.52,84.67,46.93,102.19,23.06,18.86,46,25.26,47,25.53a8,8,0,0,0,4.2,0c1-.27,23.91-6.67,47-25.53C198.48,196.67,224,164.72,224,112V56A16,16,0,0,0,208,40Zm0,72c0,37.07-13.66,67.16-40.6,89.42A129.3,129.3,0,0,1,128,223.62a128.25,128.25,0,0,1-38.92-21.81C61.82,179.51,48,149.3,48,112l0-56,160,0ZM82.34,141.66a8,8,0,0,1,11.32-11.32L112,148.69l50.34-50.35a8,8,0,0,1,11.32,11.32l-56,56a8,8,0,0,1-11.32,0Z"/></symbol>
  <symbol id="ph-regular-swatches" viewBox="0 0 256 256"><path d="M88,180a12,12,0,1,1-12-12A12,12,0,0,1,88,180Zm152-23.81V208a16,16,0,0,1-16,16H76a46.36,46.36,0,0,1-7.94-.68,44,44,0,0,1-35.43-50.95l25-143.13a15.94,15.94,0,0,1,18.47-13L130.84,26a16,16,0,0,1,12.92,18.52l-12.08,69L199.49,89a16,16,0,0,1,20.45,9.52L239,150.69A18.35,18.35,0,0,1,240,156.19ZM103,184.87,128,41.74,73.46,32l-25,143.1A28,28,0,0,0,70.9,207.57,27.29,27.29,0,0,0,91.46,203,27.84,27.84,0,0,0,103,184.87ZM116.78,195,224,156.11,204.92,104,128.5,131.7l-9.78,55.92A44.63,44.63,0,0,1,116.78,195ZM224,173.12,127.74,208H224Z"/></symbol>
  <symbol id="ph-regular-rows" viewBox="0 0 256 256"><path d="M208,136H48a16,16,0,0,0-16,16v40a16,16,0,0,0,16,16H208a16,16,0,0,0,16-16V152A16,16,0,0,0,208,136Zm0,56H48V152H208v40Zm0-144H48A16,16,0,0,0,32,64v40a16,16,0,0,0,16,16H208a16,16,0,0,0,16-16V64A16,16,0,0,0,208,48Zm0,56H48V64H208v40Z"/></symbol>
  <symbol id="ph-regular-list" viewBox="0 0 256 256"><path d="M224,128a8,8,0,0,1-8,8H40a8,8,0,0,1,0-16H216A8,8,0,0,1,224,128ZM40,72H216a8,8,0,0,0,0-16H40a8,8,0,0,0,0,16ZM216,184H40a8,8,0,0,0,0,16H216a8,8,0,0,0,0-16Z"/></symbol>
  <symbol id="ph-regular-list-dashes" viewBox="0 0 256 256"><path d="M88,64a8,8,0,0,1,8-8H216a8,8,0,0,1,0,16H96A8,8,0,0,1,88,64Zm128,56H96a8,8,0,0,0,0,16H216a8,8,0,0,0,0-16Zm0,64H96a8,8,0,0,0,0,16H216a8,8,0,0,0,0-16ZM56,56H40a8,8,0,0,0,0,16H56a8,8,0,0,0,0-16Zm0,64H40a8,8,0,0,0,0,16H56a8,8,0,0,0,0-16Zm0,64H40a8,8,0,0,0,0,16H56a8,8,0,0,0,0-16Z"/></symbol>
  <symbol id="ph-regular-monitor" viewBox="0 0 256 256"><path d="M208,40H48A24,24,0,0,0,24,64V176a24,24,0,0,0,24,24H208a24,24,0,0,0,24-24V64A24,24,0,0,0,208,40Zm8,136a8,8,0,0,1-8,8H48a8,8,0,0,1-8-8V64a8,8,0,0,1,8-8H208a8,8,0,0,1,8,8Zm-48,48a8,8,0,0,1-8,8H96a8,8,0,0,1,0-16h64A8,8,0,0,1,168,224Z"/></symbol>
  <symbol id="ph-regular-magic-wand" viewBox="0 0 256 256"><path d="M48,64a8,8,0,0,1,8-8H72V40a8,8,0,0,1,16,0V56h16a8,8,0,0,1,0,16H88V88a8,8,0,0,1-16,0V72H56A8,8,0,0,1,48,64ZM184,192h-8v-8a8,8,0,0,0-16,0v8h-8a8,8,0,0,0,0,16h8v8a8,8,0,0,0,16,0v-8h8a8,8,0,0,0,0-16Zm56-48H224V128a8,8,0,0,0-16,0v16H192a8,8,0,0,0,0,16h16v16a8,8,0,0,0,16,0V160h16a8,8,0,0,0,0-16ZM219.31,80,80,219.31a16,16,0,0,1-22.62,0L36.68,198.63a16,16,0,0,1,0-22.63L176,36.69a16,16,0,0,1,22.63,0l20.68,20.68A16,16,0,0,1,219.31,80Zm-54.63,32L144,91.31l-96,96L68.68,208ZM208,68.69,187.31,48l-32,32L176,100.69Z"/></symbol>
  <symbol id="ph-regular-device-mobile" viewBox="0 0 256 256"><path d="M176,16H80A24,24,0,0,0,56,40V216a24,24,0,0,0,24,24h96a24,24,0,0,0,24-24V40A24,24,0,0,0,176,16ZM72,64H184V192H72Zm8-32h96a8,8,0,0,1,8,8v8H72V40A8,8,0,0,1,80,32Zm96,192H80a8,8,0,0,1-8-8v-8H184v8A8,8,0,0,1,176,224Z"/></symbol>
  <symbol id="ph-regular-globe" viewBox="0 0 256 256"><path d="M128,24h0A104,104,0,1,0,232,128,104.12,104.12,0,0,0,128,24Zm88,104a87.61,87.61,0,0,1-3.33,24H174.16a157.44,157.44,0,0,0,0-48h38.51A87.61,87.61,0,0,1,216,128ZM102,168H154a115.11,115.11,0,0,1-26,45A115.27,115.27,0,0,1,102,168Zm-3.9-16a140.84,140.84,0,0,1,0-48h59.88a140.84,140.84,0,0,1,0,48ZM40,128a87.61,87.61,0,0,1,3.33-24H81.84a157.44,157.44,0,0,0,0,48H43.33A87.61,87.61,0,0,1,40,128ZM154,88H102a115.11,115.11,0,0,1,26-45A115.27,115.27,0,0,1,154,88Zm52.33,0H170.71a135.28,135.28,0,0,0-22.3-45.6A88.29,88.29,0,0,1,206.37,88ZM107.59,42.4A135.28,135.28,0,0,0,85.29,88H49.63A88.29,88.29,0,0,1,107.59,42.4ZM49.63,168H85.29a135.28,135.28,0,0,0,22.3,45.6A88.29,88.29,0,0,1,49.63,168Zm98.78,45.6a135.28,135.28,0,0,0,22.3-45.6h35.66A88.29,88.29,0,0,1,148.41,213.6Z"/></symbol>
  <symbol id="ph-regular-cursor-click" viewBox="0 0 256 256"><path d="M88,24V16a8,8,0,0,1,16,0v8a8,8,0,0,1-16,0ZM16,104h8a8,8,0,0,0,0-16H16a8,8,0,0,0,0,16ZM124.42,39.16a8,8,0,0,0,10.74-3.58l8-16a8,8,0,0,0-14.31-7.16l-8,16A8,8,0,0,0,124.42,39.16Zm-96,81.69-16,8a8,8,0,0,0,7.16,14.31l16-8a8,8,0,1,0-7.16-14.31ZM219.31,184a16,16,0,0,1,0,22.63l-12.68,12.68a16,16,0,0,1-22.63,0L132.7,168,115,214.09c0,.1-.08.21-.13.32a15.83,15.83,0,0,1-14.6,9.59l-.79,0a15.83,15.83,0,0,1-14.41-11L32.8,52.92A16,16,0,0,1,52.92,32.8L213,85.07a16,16,0,0,1,1.41,29.8l-.32.13L168,132.69ZM208,195.31,156.69,144h0a16,16,0,0,1,4.93-26l.32-.14,45.95-17.64L48,48l52.2,159.86,17.65-46c0-.11.08-.22.13-.33a16,16,0,0,1,11.69-9.34,16.72,16.72,0,0,1,3-.28,16,16,0,0,1,11.3,4.69L195.31,208Z"/></symbol>
  <symbol id="ph-regular-check-square" viewBox="0 0 256 256"><path d="M173.66,98.34a8,8,0,0,1,0,11.32l-56,56a8,8,0,0,1-11.32,0l-24-24a8,8,0,0,1,11.32-11.32L112,148.69l50.34-50.35A8,8,0,0,1,173.66,98.34ZM224,48V208a16,16,0,0,1-16,16H48a16,16,0,0,1-16-16V48A16,16,0,0,1,48,32H208A16,16,0,0,1,224,48ZM208,208V48H48V208H208Z"/></symbol>
  <symbol id="ph-regular-speaker-high" viewBox="0 0 256 256"><path d="M155.51,24.81a8,8,0,0,0-8.42.88L77.25,80H32A16,16,0,0,0,16,96v64a16,16,0,0,0,16,16H77.25l69.84,54.31A8,8,0,0,0,160,224V32A8,8,0,0,0,155.51,24.81ZM32,96H72v64H32ZM144,207.64,88,164.09V91.91l56-43.55Zm54-106.08a40,40,0,0,1,0,52.88,8,8,0,0,1-12-10.58,24,24,0,0,0,0-31.72,8,8,0,0,1,12-10.58ZM248,128a79.9,79.9,0,0,1-20.37,53.34,8,8,0,0,1-11.92-10.67,64,64,0,0,0,0-85.33,8,8,0,1,1,11.92-10.67A79.83,79.83,0,0,1,248,128Z"/></symbol>
  <symbol id="ph-regular-map-pin" viewBox="0 0 256 256"><path d="M128,64a40,40,0,1,0,40,40A40,40,0,0,0,128,64Zm0,64a24,24,0,1,1,24-24A24,24,0,0,1,128,128Zm0-112a88.1,88.1,0,0,0-88,88c0,31.4,14.51,64.68,42,96.25a254.19,254.19,0,0,0,41.45,38.3,8,8,0,0,0,9.18,0A254.19,254.19,0,0,0,174,200.25c27.45-31.57,42-64.85,42-96.25A88.1,88.1,0,0,0,128,16Zm0,206c-16.53-13-72-60.75-72-118a72,72,0,0,1,144,0C200,161.23,144.53,209,128,222Z"/></symbol>
  <symbol id="ph-regular-camera" viewBox="0 0 256 256"><path d="M208,56H180.28L166.65,35.56A8,8,0,0,0,160,32H96a8,8,0,0,0-6.65,3.56L75.71,56H48A24,24,0,0,0,24,80V192a24,24,0,0,0,24,24H208a24,24,0,0,0,24-24V80A24,24,0,0,0,208,56Zm8,136a8,8,0,0,1-8,8H48a8,8,0,0,1-8-8V80a8,8,0,0,1,8-8H80a8,8,0,0,0,6.66-3.56L100.28,48h55.43l13.63,20.44A8,8,0,0,0,176,72h32a8,8,0,0,1,8,8ZM128,88a44,44,0,1,0,44,44A44.05,44.05,0,0,0,128,88Zm0,72a28,28,0,1,1,28-28A28,28,0,0,1,128,160Z"/></symbol>
  <symbol id="ph-regular-lock" viewBox="0 0 256 256"><path d="M208,80H176V56a48,48,0,0,0-96,0V80H48A16,16,0,0,0,32,96V208a16,16,0,0,0,16,16H208a16,16,0,0,0,16-16V96A16,16,0,0,0,208,80ZM96,56a32,32,0,0,1,64,0V80H96ZM208,208H48V96H208V208Zm-68-56a12,12,0,1,1-12-12A12,12,0,0,1,140,152Z"/></symbol>
  <symbol id="ph-regular-eye-slash" viewBox="0 0 256 256"><path d="M53.92,34.62A8,8,0,1,0,42.08,45.38L61.32,66.55C25,88.84,9.38,123.2,8.69,124.76a8,8,0,0,0,0,6.5c.35.79,8.82,19.57,27.65,38.4C61.43,194.74,93.12,208,128,208a127.11,127.11,0,0,0,52.07-10.83l22,24.21a8,8,0,1,0,11.84-10.76Zm47.33,75.84,41.67,45.85a32,32,0,0,1-41.67-45.85ZM128,192c-30.78,0-57.67-11.19-79.93-33.25A133.16,133.16,0,0,1,25,128c4.69-8.79,19.66-33.39,47.35-49.38l18,19.75a48,48,0,0,0,63.66,70l14.73,16.2A112,112,0,0,1,128,192Zm6-95.43a8,8,0,0,1,3-15.72,48.16,48.16,0,0,1,38.77,42.64,8,8,0,0,1-7.22,8.71,6.39,6.39,0,0,1-.75,0,8,8,0,0,1-8-7.26A32.09,32.09,0,0,0,134,96.57Zm113.28,34.69c-.42.94-10.55,23.37-33.36,43.8a8,8,0,1,1-10.67-11.92A132.77,132.77,0,0,0,231.05,128a133.15,133.15,0,0,0-23.12-30.77C185.67,75.19,158.78,64,128,64a118.37,118.37,0,0,0-19.36,1.57A8,8,0,1,1,106,49.79,134,134,0,0,1,128,48c34.88,0,66.57,13.26,91.66,38.35,18.83,18.83,27.3,37.62,27.65,38.41A8,8,0,0,1,247.31,131.26Z"/></symbol>
  <symbol id="ph-regular-text-align-left" viewBox="0 0 256 256"><path d="M32,64a8,8,0,0,1,8-8H216a8,8,0,0,1,0,16H40A8,8,0,0,1,32,64Zm8,48H168a8,8,0,0,0,0-16H40a8,8,0,0,0,0,16Zm176,24H40a8,8,0,0,0,0,16H216a8,8,0,0,0,0-16Zm-48,40H40a8,8,0,0,0,0,16H168a8,8,0,0,0,0-16Z"/></symbol>
  <symbol id="ph-regular-sign-out" viewBox="0 0 256 256"><path d="M120,216a8,8,0,0,1-8,8H48a8,8,0,0,1-8-8V40a8,8,0,0,1,8-8h64a8,8,0,0,1,0,16H56V208h56A8,8,0,0,1,120,216Zm109.66-93.66-40-40a8,8,0,0,0-11.32,11.32L204.69,120H112a8,8,0,0,0,0,16h92.69l-26.35,26.34a8,8,0,0,0,11.32,11.32l40-40A8,8,0,0,0,229.66,122.34Z"/></symbol>
  <symbol id="ph-regular-caret-down" viewBox="0 0 256 256"><path d="M213.66,101.66l-80,80a8,8,0,0,1-11.32,0l-80-80A8,8,0,0,1,53.66,90.34L128,164.69l74.34-74.35a8,8,0,0,1,11.32,11.32Z"/></symbol>
  <symbol id="ph-regular-check" viewBox="0 0 256 256"><path d="M229.66,77.66l-128,128a8,8,0,0,1-11.32,0l-56-56a8,8,0,0,1,11.32-11.32L96,188.69,218.34,66.34a8,8,0,0,1,11.32,11.32Z"/></symbol>
  <symbol id="ph-regular-door-open" viewBox="0 0 256 256"><path d="M232,216H208V40a16,16,0,0,0-16-16H64A16,16,0,0,0,48,40V216H24a8,8,0,0,0,0,16H232a8,8,0,0,0,0-16Zm-40,0H176V40h16ZM64,40h96V216H64Zm80,92a12,12,0,1,1-12-12A12,12,0,0,1,144,132Z"/></symbol>
  <symbol id="ph-regular-chat-circle" viewBox="0 0 256 256"><path d="M128,24A104,104,0,0,0,36.18,176.88L24.83,210.93a16,16,0,0,0,20.24,20.24l34.05-11.35A104,104,0,1,0,128,24Zm0,192a87.87,87.87,0,0,1-44.06-11.81,8,8,0,0,0-6.54-.67L40,216,52.47,178.6a8,8,0,0,0-.66-6.54A88,88,0,1,1,128,216Z"/></symbol>
  <symbol id="ph-regular-user-gear" viewBox="0 0 256 256"><path d="M144,157.68a68,68,0,1,0-71.9,0c-20.65,6.76-39.23,19.39-54.17,37.17a8,8,0,1,0,12.24,10.3C50.25,181.19,77.91,168,108,168s57.75,13.19,77.87,37.15a8,8,0,0,0,12.26-10.3C183.18,177.07,164.6,164.44,144,157.68ZM56,100a52,52,0,1,1,52,52A52.06,52.06,0,0,1,56,100Zm196.25,43.07-4.66-2.69a23.6,23.6,0,0,0,0-8.76l4.66-2.69a8,8,0,1,0-8-13.86l-4.67,2.7a23.92,23.92,0,0,0-7.58-4.39V108a8,8,0,0,0-16,0v5.38a23.92,23.92,0,0,0-7.58,4.39l-4.67-2.7a8,8,0,1,0-8,13.86l4.66,2.69a23.6,23.6,0,0,0,0,8.76l-4.66,2.69a8,8,0,0,0,8,13.86l4.67-2.7a23.92,23.92,0,0,0,7.58,4.39V164a8,8,0,0,0,16,0v-5.38a23.92,23.92,0,0,0,7.58-4.39l4.67,2.7a7.92,7.92,0,0,0,4,1.07,8,8,0,0,0,4-14.93ZM216,136a8,8,0,1,1,8,8A8,8,0,0,1,216,136Z"/></symbol>
  <symbol id="ph-regular-play" viewBox="0 0 256 256"><path d="M232.4,114.49,88.32,26.35a16,16,0,0,0-16.2-.3A15.86,15.86,0,0,0,64,39.87V216.13A15.94,15.94,0,0,0,80,232a16.07,16.07,0,0,0,8.36-2.35L232.4,141.51a15.81,15.81,0,0,0,0-27ZM80,215.94V40l143.83,88Z"/></symbol>
  <symbol id="ph-regular-pencil-simple" viewBox="0 0 256 256"><path d="M227.31,73.37,182.63,28.68a16,16,0,0,0-22.63,0L36.69,152A15.86,15.86,0,0,0,32,163.31V208a16,16,0,0,0,16,16H92.69A15.86,15.86,0,0,0,104,219.31L227.31,96a16,16,0,0,0,0-22.63ZM92.69,208H48V163.31l88-88L180.69,120ZM192,108.68,147.31,64l24-24L216,84.68Z"/></symbol>
  <symbol id="ph-regular-x" viewBox="0 0 256 256"><path d="M205.66,194.34a8,8,0,0,1-11.32,11.32L128,139.31,61.66,205.66a8,8,0,0,1-11.32-11.32L116.69,128,50.34,61.66A8,8,0,0,1,61.66,50.34L128,116.69l66.34-66.35a8,8,0,0,1,11.32,11.32L139.31,128Z"/></symbol>
  <symbol id="ph-regular-user-minus" viewBox="0 0 256 256"><path d="M256,136a8,8,0,0,1-8,8H200a8,8,0,0,1,0-16h48A8,8,0,0,1,256,136Zm-57.87,58.85a8,8,0,0,1-12.26,10.3C165.75,181.19,138.09,168,108,168s-57.75,13.19-77.87,37.15a8,8,0,0,1-12.25-10.3c14.94-17.78,33.52-30.41,54.17-37.17a68,68,0,1,1,71.9,0C164.6,164.44,183.18,177.07,198.13,194.85ZM108,152a52,52,0,1,0-52-52A52.06,52.06,0,0,0,108,152Z"/></symbol>
  <symbol id="ph-regular-paper-plane-tilt" viewBox="0 0 256 256"><path d="M227.32,28.68a16,16,0,0,0-15.66-4.08l-.15,0L19.57,82.84a16,16,0,0,0-2.49,29.8L102,154l41.3,84.87A15.86,15.86,0,0,0,157.74,248q.69,0,1.38-.06a15.88,15.88,0,0,0,14-11.51l58.2-191.94c0-.05,0-.1,0-.15A16,16,0,0,0,227.32,28.68ZM157.83,231.85l-.05.14,0-.07-40.06-82.3,48-48a8,8,0,0,0-11.31-11.31l-48,48L24.08,98.25l-.07,0,.14,0L216,40Z"/></symbol>
</svg>
